<svg width="25" height="25" viewBox="0 0 25 25" fill="none" xmlns="http://www.w3.org/2000/svg">
<g clip-path="url(#clip0_3_24)">
<path d="M12.5 20.8758C6.74687 20.8758 2.08333 16.2123 2.08333 10.4591C2.08333 4.70602 6.74687 0.0424805 12.5 0.0424805C18.2531 0.0424805 22.9167 4.70602 22.9167 10.4591C22.9167 16.2123 18.2531 20.8758 12.5 20.8758ZM12.5 18.7925C14.7101 18.7925 16.8298 17.9145 18.3926 16.3517C19.9554 14.7889 20.8333 12.6693 20.8333 10.4591C20.8333 8.24901 19.9554 6.1294 18.3926 4.56659C16.8298 3.00379 14.7101 2.12581 12.5 2.12581C10.2899 2.12581 8.17024 3.00379 6.60744 4.56659C5.04464 6.1294 4.16666 8.24901 4.16666 10.4591C4.16666 12.6693 5.04464 14.7889 6.60744 16.3517C8.17024 17.9145 10.2899 18.7925 12.5 18.7925Z" fill="black"/>
</g>
<defs>
<clipPath id="clip0_3_24">
<rect width="25" height="25" fill="white"/>
</clipPath>
</defs>
</svg>
