<svg width="38" height="37" viewBox="0 0 38 37" fill="none" xmlns="http://www.w3.org/2000/svg">
<path d="M37.829 29.4928L37.6399 28.9379C37.1919 27.6412 35.7236 26.2888 34.3747 25.9325L29.3823 24.6044C28.0285 24.2457 26.0972 24.728 25.1067 25.6926L23.2999 27.4522C16.7334 25.7242 11.5843 20.7095 9.81237 14.3159L11.6193 12.5563C12.6098 11.5916 13.105 9.71333 12.7367 8.39486L11.3754 3.53056C11.007 2.21449 9.61582 0.784573 8.28689 0.353124L7.717 0.166521C6.38552 -0.264928 4.48662 0.171407 3.49616 1.13598L0.793387 3.77052C0.310539 4.23826 0.00193936 5.57612 0.00193936 5.58101C-0.0925915 13.9378 3.27214 21.9891 9.34202 27.9004C15.397 33.7972 23.6335 37.0692 32.1896 36.9989C32.2344 36.9989 33.6479 36.7032 34.1308 36.2353L36.8336 33.6032C37.824 32.6387 38.272 30.7895 37.829 29.4928Z" fill="black"/>
</svg>
