<svg width="48" height="38" viewBox="0 0 48 38" fill="none" xmlns="http://www.w3.org/2000/svg">
<path d="M48 31.6665C48 32.7772 47.704 33.8069 47.2299 34.7129L32.0743 16.8139L47.0655 2.96924C47.6487 3.94611 48 5.0936 48 6.33361V31.6665ZM24.0001 20.0639L44.8599 0.797993C44.0039 0.303346 43.0399 0 42.0001 0H5.99996C4.95887 0 3.99463 0.303346 3.14209 0.797993L24.0001 20.0639ZM29.8156 18.8983L24.9871 23.3607C24.7047 23.6204 24.353 23.7501 24.0001 23.7501C23.6469 23.7501 23.2952 23.6204 23.0128 23.3607L18.1832 18.8981L2.83591 37.0259C3.75583 37.635 4.83392 38 5.99986 38H42.0001C43.1659 38 44.2445 37.635 45.1641 37.0259L29.8156 18.8983ZM0.934653 2.96914C0.351583 3.946 0 5.0935 0 6.33361V31.6666C0 32.7773 0.294602 33.807 0.770535 34.713L15.9243 16.8109L0.934653 2.96914Z" fill="black"/>
</svg>
