<svg width="45" height="44" viewBox="0 0 45 44" fill="none" xmlns="http://www.w3.org/2000/svg">
<path d="M13.68 0.879883C6.6534 0.879883 0.940002 6.47668 0.940002 13.3599V30.6399C0.940002 37.5231 6.6534 43.1199 13.68 43.1199H31.32C38.3466 43.1199 44.06 37.5231 44.06 30.6399V13.3599C44.06 6.47668 38.3466 0.879883 31.32 0.879883H13.68ZM34.26 8.55988C35.338 8.55988 36.22 9.42388 36.22 10.4799C36.22 11.5359 35.338 12.3999 34.26 12.3999C33.182 12.3999 32.3 11.5359 32.3 10.4799C32.3 9.42388 33.182 8.55988 34.26 8.55988ZM22.5 11.4399C28.4486 11.4399 33.28 16.1727 33.28 21.9999C33.28 27.8271 28.4486 32.5599 22.5 32.5599C16.5514 32.5599 11.72 27.8271 11.72 21.9999C11.72 16.1727 16.5514 11.4399 22.5 11.4399ZM22.5 13.3599C17.6392 13.3599 13.68 17.2383 13.68 21.9999C13.68 26.7615 17.6392 30.6399 22.5 30.6399C27.3608 30.6399 31.32 26.7615 31.32 21.9999C31.32 17.2383 27.3608 13.3599 22.5 13.3599Z" fill="black"/>
</svg>
