<svg width="42" height="42" viewBox="0 0 42 42" fill="none" xmlns="http://www.w3.org/2000/svg">
<path d="M27.2292 0H14.4375C2.77083 0 0 2.77083 0 14.4375V27.2292C0 38.8958 2.77083 41.6667 14.4375 41.6667H27.2292C38.8958 41.6667 41.6667 38.8958 41.6667 27.2292V14.4375C41.6667 2.77083 38.8958 0 27.2292 0ZM33.6458 29.7292H30.6042C29.4583 29.7292 29.1042 28.7917 27.0833 26.7292C25.25 25 24.4583 24.75 24.0208 24.75C23.4167 24.75 23.2292 24.9167 23.2292 25.7917V28.5208C23.2292 29.25 23 29.7083 21.0625 29.7083C17.8542 29.7083 14.2917 27.75 11.7917 24.1458C8.02083 18.8542 7 14.8542 7 14.0625C7 13.625 7.14583 13.2083 8.02083 13.2083H11.0833C11.8542 13.2083 12.1458 13.5417 12.4375 14.375C13.9375 18.75 16.4375 22.5 17.4583 22.5C17.8542 22.5 18.0208 22.3125 18.0208 21.3542V16.875C17.9167 14.8333 16.8125 14.6458 16.8125 13.9167C16.8125 13.5417 17.1042 13.2083 17.5833 13.2083H22.3542C23 13.2083 23.2292 13.5417 23.2292 14.3333V20.3542C23.2292 21 23.5 21.2292 23.7083 21.2292C24.0833 21.2292 24.4167 21 25.1042 20.2917C27.2917 17.8542 28.8542 14.0833 28.8542 14.0833C29.0625 13.6458 29.3958 13.2292 30.2083 13.2292H33.1875C34.1042 13.2292 34.3125 13.7083 34.1042 14.3542C33.7292 16.125 30.0208 21.3542 30.0625 21.3542C29.7292 21.875 29.6042 22.1042 30.0625 22.7083C30.375 23.1458 31.4375 24.0625 32.1458 24.875C33.4375 26.3542 34.4375 27.5833 34.7083 28.4375C34.9375 29.2917 34.5208 29.7292 33.6458 29.7292Z" fill="black"/>
</svg>
